<?xml version="1.0" encoding="UTF-8"?>
<svg version="1.1" xmlns="http://www.w3.org/2000/svg" width="1344" height="768">
<path d="M0 0 C443.52 0 887.04 0 1344 0 C1344 253.44 1344 506.88 1344 768 C900.48 768 456.96 768 0 768 C0 514.56 0 261.12 0 0 Z " fill="#FDFDFD" transform="translate(0,0)"/>
<path d="M0 0 C0.74056641 0.00451172 1.48113281 0.00902344 2.24414062 0.01367188 C4.05862899 0.02537825 5.87307534 0.04331102 7.6875 0.0625 C7.6875 0.7225 7.6875 1.3825 7.6875 2.0625 C8.43 2.26875 9.1725 2.475 9.9375 2.6875 C13.56205474 4.49977737 14.75430304 6.54131982 16.6875 10.0625 C17.99287829 14.68335955 17.81485291 19.32213437 17.78515625 24.08203125 C17.7837413 24.94060226 17.78232635 25.79917328 17.78086853 26.6837616 C17.77529057 29.41421049 17.76274214 32.14457607 17.75 34.875 C17.74498215 36.7311186 17.74041974 38.5872385 17.73632812 40.44335938 C17.72532836 44.9831048 17.70807893 49.5227883 17.6875 54.0625 C18.62613892 54.24099487 18.62613892 54.24099487 19.58374023 54.4230957 C20.40044189 54.58898193 21.21714355 54.75486816 22.05859375 54.92578125 C22.86997803 55.08602783 23.6813623 55.24627441 24.51733398 55.41137695 C26.6875 56.0625 26.6875 56.0625 28.75 58.25 C29.92974496 61.78923488 30.15939393 64.35476195 29.6875 68.0625 C28.125 70.5 28.125 70.5 25.6875 72.0625 C22.1875 72.625 22.1875 72.625 18.6875 72.0625 C16.25 70.1875 16.25 70.1875 14.6875 67.0625 C14.36996121 63.65286212 14.50407221 60.50177106 14.6875 57.0625 C8.7475 57.0625 2.8075 57.0625 -3.3125 57.0625 C-3.3125 56.0725 -3.3125 55.0825 -3.3125 54.0625 C2.6275 54.0625 8.5675 54.0625 14.6875 54.0625 C14.47539096 48.02938779 14.24501063 41.99735236 13.99780273 35.96557617 C13.9162976 33.91433674 13.83975493 31.86289378 13.76831055 29.8112793 C13.66464048 26.8591849 13.54303778 23.90828703 13.41796875 20.95703125 C13.38970505 20.04226517 13.36144135 19.12749908 13.33232117 18.18501282 C13.11061136 13.39322659 12.83329082 9.92765846 9.6875 6.0625 C4.18762717 2.95060614 -2.19498071 3.57649279 -8.3125 4.0625 C-13.61445435 5.76669961 -16.15414735 8.64080629 -19.3125 13.0625 C-20.64275032 17.20964573 -20.53989933 21.44877593 -20.62890625 25.765625 C-20.64968735 26.60341492 -20.67046844 27.44120483 -20.69187927 28.30438232 C-20.7571255 30.97367356 -20.81614358 33.64306098 -20.875 36.3125 C-20.91820894 38.12500984 -20.96182399 39.93751005 -21.00585938 41.75 C-21.11278129 46.18740209 -21.21411866 50.62490068 -21.3125 55.0625 C-20.12962402 55.27531616 -20.12962402 55.27531616 -18.92285156 55.49243164 C-14.98536898 56.35232893 -13.24016047 58.33445275 -10.3125 61.0625 C-8.89208179 63.90333641 -8.99797728 65.91727278 -9.3125 69.0625 C-10.8125 71.4375 -10.8125 71.4375 -13.3125 73.0625 C-16.33212131 73.71259956 -18.13234336 73.51680809 -21.3125 73.0625 C-25.56859495 67.80948191 -24.52526642 62.51641476 -24.3125 56.0625 C-30.2525 56.3925 -36.1925 56.7225 -42.3125 57.0625 C-44.2145678 60.8666356 -44.56934496 62.17415742 -44.61547852 66.20605469 C-44.63215576 67.23916779 -44.64883301 68.27228088 -44.66601562 69.33670044 C-44.67439453 70.45793304 -44.68277344 71.57916565 -44.69140625 72.734375 C-44.7080835 73.9093454 -44.72476074 75.0843158 -44.74194336 76.29489136 C-44.79486535 80.13403527 -44.83479592 83.97320383 -44.875 87.8125 C-44.92692873 91.76355629 -44.98237325 95.71455309 -45.03807068 99.66555786 C-45.07524598 102.31436708 -45.11134507 104.96319161 -45.14637756 107.61203003 C-45.30369412 119.30633286 -45.56417159 130.99638551 -45.875 142.6875 C-45.91936694 144.38509076 -45.96371965 146.08268189 -46.00805664 147.78027344 C-46.1070241 151.54108574 -46.2087225 155.30181697 -46.3125 159.0625 C-43.71394018 160.36177991 -41.47093194 160.4522243 -38.57421875 160.74609375 C-37.37619629 160.86815186 -36.17817383 160.99020996 -34.94384766 161.1159668 C-33.64237793 161.24269775 -32.3409082 161.36942871 -31 161.5 C-30.33345398 161.56530914 -29.66690796 161.63061829 -28.98016357 161.69790649 C4.79757432 165.34140754 4.79757432 165.34140754 38.6875 165.0625 C40.24983028 163.50016972 39.8282528 161.97740105 39.84571838 159.80418396 C39.8555072 158.8856665 39.86529602 157.96714905 39.87538147 157.02079773 C39.88113693 156.00516251 39.8868924 154.98952728 39.89282227 153.94311523 C39.90272186 152.87983002 39.91262146 151.8165448 39.92282104 150.72103882 C39.95454335 147.18774686 39.97923573 143.65444142 40.00390625 140.12109375 C40.02446652 137.67871236 40.04546273 135.2363346 40.06687927 132.79396057 C40.1221957 126.35119561 40.17156263 119.90839804 40.21972656 113.46557617 C40.26987189 106.89694297 40.32559424 100.3283574 40.38085938 93.75976562 C40.48855794 80.86071801 40.59016597 67.96162977 40.6875 55.0625 C42.06035156 55.09730469 42.06035156 55.09730469 43.4609375 55.1328125 C44.64945313 55.15085937 45.83796875 55.16890625 47.0625 55.1875 C48.24585938 55.21070313 49.42921875 55.23390625 50.6484375 55.2578125 C53.79903817 55.39116229 53.79903817 55.39116229 55.6875 53.0625 C58.25 53.3125 58.25 53.3125 60.6875 54.0625 C62.03132496 56.75014991 62.10276601 59.15843987 62.40625 62.15234375 C62.59695068 64.02865479 62.59695068 64.02865479 62.79150391 65.94287109 C62.92387353 67.29521114 63.05586499 68.64758825 63.1875 70 C63.25475281 70.67734192 63.32200562 71.35468384 63.39129639 72.05255127 C64.28384514 81.06593117 65.04886225 90.07142271 65.39648438 99.12475586 C65.54760027 103.00262924 65.89882265 106.7925542 66.41113281 110.63769531 C68.05095843 125.02528191 68.81456596 139.83387594 69 154.3125 C69.01675781 155.57578125 69.03351563 156.8390625 69.05078125 158.140625 C68.6875 161.0625 68.6875 161.0625 67.46875 162.84765625 C62.22717169 166.42250461 56.05912303 168.73319716 49.6875 168.0625 C49.6875 167.0725 49.6875 166.0825 49.6875 165.0625 C50.68330078 164.78986328 50.68330078 164.78986328 51.69921875 164.51171875 C53.02373047 164.13466797 53.02373047 164.13466797 54.375 163.75 C55.24511719 163.50636719 56.11523438 163.26273438 57.01171875 163.01171875 C59.96032757 161.96571591 62.1853238 160.95577964 64.6875 159.0625 C65.35076735 156.52446102 65.35076735 156.52446102 65.0859375 153.5703125 C65.04049805 152.40532227 64.99505859 151.24033203 64.94824219 150.04003906 C64.86219727 148.72745117 64.77615234 147.41486328 64.6875 146.0625 C64.64435669 145.3552478 64.60121338 144.64799561 64.5567627 143.91931152 C64.26043892 139.11855135 63.90233003 134.32404692 63.51947021 129.52947998 C63.30802702 126.88148286 63.10273777 124.23306742 62.89892578 121.58447266 C62.56102955 117.20315939 62.21853525 112.82222295 61.87426758 108.44140625 C60.53016108 91.32117914 59.34690261 74.22432056 58.6875 57.0625 C57.6975 57.0625 56.7075 57.0625 55.6875 57.0625 C55.3575 58.0525 55.0275 59.0425 54.6875 60.0625 C49.2425 59.5675 49.2425 59.5675 43.6875 59.0625 C43.69860306 60.37937302 43.70970612 61.69624603 43.72114563 63.05302429 C43.82245902 75.45710108 43.89743564 87.86109403 43.94656086 100.26549053 C43.97266568 106.6429079 44.00808109 113.01999152 44.06469727 119.3972168 C44.11898365 125.55045163 44.14891387 131.70336525 44.16188622 137.85682106 C44.17113202 140.20562612 44.18918678 142.5544134 44.21615028 144.90308189 C44.25239427 148.19057723 44.25744709 151.47674164 44.25512695 154.7644043 C44.27310333 155.7376062 44.29107971 156.71080811 44.30960083 157.71350098 C44.27418897 162.34404961 44.19998109 164.39123448 41.31413269 168.17121887 C38.25007798 170.37746144 36.92289345 170.65564139 33.1875 170.5 C32.02863281 170.45488281 30.86976563 170.40976562 29.67578125 170.36328125 C24.35916418 169.96232188 19.05592714 169.46530206 13.75268555 168.91577148 C6.04638862 168.134696 -1.66680569 167.63736597 -9.39764404 167.18603516 C-29.35622397 166.01326216 -29.35622397 166.01326216 -38 165.1875 C-39.03966919 165.10628906 -39.03966919 165.10628906 -40.1003418 165.0234375 C-44.5904338 164.54626844 -47.09438238 163.20300068 -50.3125 160.0625 C-53.98768869 152.71212262 -51.01367505 140.1591542 -50.3359375 132.1484375 C-49.54794484 122.04213653 -49.12250615 111.98793242 -49.0390625 101.8515625 C-49.02792419 100.60139343 -49.01678589 99.35122437 -49.00531006 98.06317139 C-48.96656845 92.96120578 -48.9392472 87.85943557 -48.93164062 82.75732422 C-48.92216224 78.95507145 -48.88854264 75.153633 -48.8515625 71.3515625 C-48.85660797 70.20168854 -48.86165344 69.05181458 -48.86685181 67.86709595 C-48.73835304 57.49694323 -48.73835304 57.49694323 -44.3125 53.0625 C-42.02246094 52.38134766 -42.02246094 52.38134766 -39.546875 52.4765625 C-38.21269531 52.50556641 -38.21269531 52.50556641 -36.8515625 52.53515625 C-35.93117188 52.58542969 -35.01078125 52.63570313 -34.0625 52.6875 C-32.65871094 52.72810547 -32.65871094 52.72810547 -31.2265625 52.76953125 C-28.9195276 52.84015477 -26.61719231 52.93869421 -24.3125 53.0625 C-24.32035522 51.52710571 -24.32035522 51.52710571 -24.32836914 49.96069336 C-24.34656262 46.13827398 -24.35798416 42.31585838 -24.36743164 38.4934082 C-24.37243919 36.84366206 -24.37924716 35.1939203 -24.38793945 33.54418945 C-24.40016254 31.16356315 -24.40576422 28.78299587 -24.41015625 26.40234375 C-24.41531754 25.67289047 -24.42047882 24.94343719 -24.42579651 24.19187927 C-24.42716813 11.47646498 -24.42716813 11.47646498 -19.9375 6.75 C-19.02871094 5.76580078 -19.02871094 5.76580078 -18.1015625 4.76171875 C-12.67032616 -0.39676992 -7.12460832 -0.08277025 0 0 Z " fill="#2F3031" transform="translate(668.3125,231.9375)"/>
<path d="M0 0 C4.46979224 1.15598075 5.9413841 2.18043773 8.625 5.9375 C12.76724339 16.74616634 12.30044364 33.44122291 7.625 43.9375 C5.375 47.125 5.375 47.125 2.625 48.9375 C-1.1875 49.25 -1.1875 49.25 -4.375 48.9375 C-5.19613177 47.54672699 -6.00652495 46.14961107 -6.8125 44.75 C-7.26496094 43.97269531 -7.71742188 43.19539063 -8.18359375 42.39453125 C-11.10087259 36.37824145 -10.62796512 29.72839884 -10.6875 23.1875 C-10.71650391 22.14078125 -10.74550781 21.0940625 -10.77539062 20.015625 C-10.82984848 13.31311946 -10.17205005 7.62626458 -6.375 1.9375 C-3.375 -0.0625 -3.375 -0.0625 0 0 Z " fill="#F3F2F1" transform="translate(727.375,446.0625)"/>
<path d="M0 0 C6.03653699 -0.3221077 10.83245145 -0.56806924 16 3 C20.29073561 7.52910981 22.24921986 11.85530283 22.265625 18.08984375 C22.26949219 19.51393555 22.26949219 19.51393555 22.2734375 20.96679688 C22.26570312 21.94712891 22.25796875 22.92746094 22.25 23.9375 C22.25773438 24.91396484 22.26546875 25.89042969 22.2734375 26.89648438 C22.25020117 35.46487993 20.85427047 40.70665925 15 47 C12.23547967 48.38226016 9.9538637 48.09525387 6.875 48.0625 C5.77929688 48.05347656 4.68359375 48.04445313 3.5546875 48.03515625 C2.71164062 48.02355469 1.86859375 48.01195312 1 48 C1 47.01 1 46.02 1 45 C1.99 45 2.98 45 4 45 C4 31.14 4 17.28 4 3 C2.68 3 1.36 3 0 3 C0 2.01 0 1.02 0 0 Z " fill="#EFEFEF" transform="translate(617,447)"/>
<path d="M0 0 C2.5625 0.25 2.5625 0.25 5 1 C6.34382496 3.68764991 6.41526601 6.09593987 6.71875 9.08984375 C6.84588379 10.34071777 6.97301758 11.5915918 7.10400391 12.88037109 C7.23637353 14.23271114 7.36836499 15.58508825 7.5 16.9375 C7.60087921 17.95351288 7.60087921 17.95351288 7.70379639 18.99005127 C8.59634514 28.00343117 9.36136225 37.00892271 9.70898438 46.06225586 C9.86010027 49.94012924 10.21132265 53.7300542 10.72363281 57.57519531 C12.36345843 71.96278191 13.12706596 86.77137594 13.3125 101.25 C13.32925781 102.51328125 13.34601562 103.7765625 13.36328125 105.078125 C13 108 13 108 11.78125 109.78515625 C6.53967169 113.36000461 0.37162303 115.67069716 -6 115 C-6 114.01 -6 113.02 -6 112 C-5.33613281 111.81824219 -4.67226563 111.63648438 -3.98828125 111.44921875 C-3.10527344 111.19785156 -2.22226562 110.94648438 -1.3125 110.6875 C-0.44238281 110.44386719 0.42773438 110.20023437 1.32421875 109.94921875 C4.27282757 108.90321591 6.4978238 107.89327964 9 106 C9.66326735 103.46196102 9.66326735 103.46196102 9.3984375 100.5078125 C9.35299805 99.34282227 9.30755859 98.17783203 9.26074219 96.97753906 C9.17469727 95.66495117 9.08865234 94.35236328 9 93 C8.95685669 92.2927478 8.91371338 91.58549561 8.8692627 90.85681152 C8.57293892 86.05605135 8.21483003 81.26154692 7.83197021 76.46697998 C7.62052702 73.81898286 7.41523777 71.17056742 7.21142578 68.52197266 C6.87352955 64.14065939 6.53103525 59.75972295 6.18676758 55.37890625 C4.84266108 38.25867914 3.65940261 21.16182056 3 4 C2.01 4 1.02 4 0 4 C-0.33 4.99 -0.66 5.98 -1 7 C-5.81798756 7.22942798 -8.14786828 6.61737724 -13 5 C-13 39.98 -13 74.96 -13 111 C-13.33 111 -13.66 111 -14 111 C-14.88410465 85.14464168 -15.09116233 59.30525456 -15.0625 33.4375 C-15.06121597 32.27044777 -15.06121597 32.27044777 -15.05990601 31.07981873 C-15.04845438 21.38652206 -15.02829017 11.69326259 -15 2 C-14.08476563 2.02320313 -13.16953125 2.04640625 -12.2265625 2.0703125 C-10.44378906 2.09738281 -10.44378906 2.09738281 -8.625 2.125 C-6.84996094 2.15980469 -6.84996094 2.15980469 -5.0390625 2.1953125 C-1.88846183 2.32866229 -1.88846183 2.32866229 0 0 Z " fill="#333331" transform="translate(724,285)"/>
<path d="M0 0 C6.75344633 -0.49820506 12.53035025 -0.39408313 18 4 C21.8319028 9.7478542 21.93117358 16.25967017 21 23 C19.23836849 28.05540995 17.50892196 31.99405202 13 35 C10.525 35.495 10.525 35.495 8 36 C7.67 39.96 7.34 43.92 7 48 C6.01 47.67 5.02 47.34 4 47 C4 32.48 4 17.96 4 3 C2.68 3 1.36 3 0 3 C0 2.01 0 1.02 0 0 Z " fill="#262525" transform="translate(741,447)"/>
<path d="M0 0 C1.32 0.33 2.64 0.66 4 1 C3.01 1 2.02 1 1 1 C1.01110306 2.31687302 1.02220612 3.63374603 1.03364563 4.99052429 C1.13495902 17.39460108 1.20993564 29.79859403 1.25906086 42.20299053 C1.28516568 48.5804079 1.32058109 54.95749152 1.37719727 61.3347168 C1.43148365 67.48795163 1.46141387 73.64086525 1.47438622 79.79432106 C1.48363202 82.14312612 1.50168678 84.4919134 1.52865028 86.84058189 C1.56489427 90.12807723 1.56994709 93.41424164 1.56762695 96.7019043 C1.58560333 97.6751062 1.60357971 98.64830811 1.62210083 99.65100098 C1.58668897 104.28154961 1.51248109 106.32873448 -1.37336731 110.10871887 C-4.43742202 112.31496144 -5.76460655 112.59314139 -9.5 112.4375 C-11.23830078 112.36982422 -11.23830078 112.36982422 -13.01171875 112.30078125 C-18.32833582 111.89982188 -23.63157286 111.40280206 -28.93481445 110.85327148 C-36.64111138 110.072196 -44.35430569 109.57486597 -52.08514404 109.12353516 C-72.04372397 107.95076216 -72.04372397 107.95076216 -80.6875 107.125 C-81.72716919 107.04378906 -81.72716919 107.04378906 -82.7878418 106.9609375 C-87.2779338 106.48376844 -89.78188238 105.14050068 -93 102 C-94.32301965 99.3539607 -93.92024672 97.73849793 -93.62890625 94.796875 C-93.1917361 90.10097993 -92.79794695 85.40766295 -92.46484375 80.703125 C-92.37783203 79.47851562 -92.29082031 78.25390625 -92.20117188 76.9921875 C-92.11416016 75.75726563 -92.02714844 74.52234375 -91.9375 73.25 C-91.84662109 71.96867187 -91.75574219 70.68734375 -91.66210938 69.3671875 C-91.44074875 66.2448376 -91.22005721 63.12244199 -91 60 C-90.67 60 -90.34 60 -90 60 C-90.01571045 61.20124512 -90.0314209 62.40249023 -90.04760742 63.64013672 C-90.10180885 68.08668339 -90.13631427 72.53320074 -90.16479492 76.97998047 C-90.17990395 78.90646267 -90.20039214 80.83291035 -90.22631836 82.75927734 C-90.26260925 85.52450057 -90.27970479 88.28927004 -90.29296875 91.0546875 C-90.30845261 91.9193161 -90.32393646 92.7839447 -90.33988953 93.67477417 C-90.37595018 96.35052023 -90.37595018 96.35052023 -90 100 C-86.68476763 102.21015492 -85.06943447 102.40244619 -81.1640625 102.78125 C-79.37186279 102.95950317 -79.37186279 102.95950317 -77.54345703 103.14135742 C-76.25036621 103.25970947 -74.95727539 103.37806152 -73.625 103.5 C-72.27326039 103.6278595 -70.92153533 103.75587285 -69.56982422 103.8840332 C-36.83531054 107.29867418 -36.83531054 107.29867418 -4 107 C-1.84543031 104.84543031 -2.73973374 99.9288373 -2.68359375 96.93359375 C-2.6524221 95.57065941 -2.6524221 95.57065941 -2.62062073 94.18019104 C-2.55502328 91.26604054 -2.4961932 88.35179696 -2.4375 85.4375 C-2.39432446 83.46678709 -2.35071049 81.49608374 -2.30664062 79.52539062 C-2.19933157 74.68369012 -2.09809325 69.84189563 -2 65 C-1.67 65 -1.34 65 -1 65 C-0.67 43.55 -0.34 22.1 0 0 Z " fill="#383838" transform="translate(711,290)"/>
<path d="M0 0 C1.32 0.33 2.64 0.66 4 1 C4 11.56 4 22.12 4 33 C7.96 33 11.92 33 16 33 C16 22.11 16 11.22 16 0 C16.99 0 17.98 0 19 0 C19 10.89 19 21.78 19 33 C20.65 33 22.3 33 24 33 C24 33.99 24 34.98 24 36 C22.35 36 20.7 36 19 36 C19 39.96 19 43.92 19 48 C18.01 48 17.02 48 16 48 C16 44.04 16 40.08 16 36 C12.04 36 8.08 36 4 36 C4 39.96 4 43.92 4 48 C2.68 47.67 1.36 47.34 0 47 C0 31.49 0 15.98 0 0 Z " fill="#353434" transform="translate(689,447)"/>
<path d="M0 0 C4.46979224 1.15598075 5.9413841 2.18043773 8.625 5.9375 C12.76724339 16.74616634 12.30044364 33.44122291 7.625 43.9375 C5.375 47.125 5.375 47.125 2.625 48.9375 C-1.1875 49.25 -1.1875 49.25 -4.375 48.9375 C-5.19613177 47.54672699 -6.00652495 46.14961107 -6.8125 44.75 C-7.26496094 43.97269531 -7.71742188 43.19539063 -8.18359375 42.39453125 C-11.10087259 36.37824145 -10.62796512 29.72839884 -10.6875 23.1875 C-10.71650391 22.14078125 -10.74550781 21.0940625 -10.77539062 20.015625 C-10.82984848 13.31311946 -10.17205005 7.62626458 -6.375 1.9375 C-3.375 -0.0625 -3.375 -0.0625 0 0 Z M-3.375 3.9375 C-7.14737967 10.32668849 -7.95152388 15.01937838 -7.75 22.375 C-7.74871094 23.26509766 -7.74742187 24.15519531 -7.74609375 25.07226562 C-7.60803465 36.35219181 -7.60803465 36.35219181 -2.375 45.9375 C0.04767086 45.98917527 0.04767086 45.98917527 2.625 44.9375 C6.43273922 37.72999361 6.80702109 31.58585758 6.8125 23.625 C6.82474609 22.70009766 6.83699219 21.77519531 6.84960938 20.82226562 C6.86102506 15.4683079 6.51844274 10.96674965 4.625 5.9375 C2.72744856 3.58776182 2.72744856 3.58776182 -0.5 3.8125 C-1.44875 3.85375 -2.3975 3.895 -3.375 3.9375 Z " fill="#262524" transform="translate(727.375,446.0625)"/>
<path d="M0 0 C6.03653699 -0.3221077 10.83245145 -0.56806924 16 3 C20.29073561 7.52910981 22.24921986 11.85530283 22.265625 18.08984375 C22.26949219 19.51393555 22.26949219 19.51393555 22.2734375 20.96679688 C22.26570312 21.94712891 22.25796875 22.92746094 22.25 23.9375 C22.25773438 24.91396484 22.26546875 25.89042969 22.2734375 26.89648438 C22.25020117 35.46487993 20.85427047 40.70665925 15 47 C12.23547967 48.38226016 9.9538637 48.09525387 6.875 48.0625 C5.77929688 48.05347656 4.68359375 48.04445313 3.5546875 48.03515625 C2.71164062 48.02355469 1.86859375 48.01195312 1 48 C1 47.01 1 46.02 1 45 C1.99 45 2.98 45 4 45 C4 31.14 4 17.28 4 3 C2.68 3 1.36 3 0 3 C0 2.01 0 1.02 0 0 Z M7 4 C7 17.53 7 31.06 7 45 C13.3015765 44.19312729 13.3015765 44.19312729 17 40 C18.66496718 34.44212394 19.38752144 29.35201761 19.375 23.5625 C19.37411377 22.82185303 19.37322754 22.08120605 19.37231445 21.31811523 C19.25033371 15.67666076 18.46133891 10.64213011 15 6 C11.90754997 3.53774984 11.90754997 3.53774984 7 4 Z " fill="#302F2F" transform="translate(617,447)"/>
<path d="M0 0 C2.12890625 0.421875 2.12890625 0.421875 4.69140625 2.109375 C6.36192083 4.79672455 6.47428829 6.31343665 6.12890625 9.421875 C5.13890625 9.421875 4.14890625 9.421875 3.12890625 9.421875 C3.12890625 7.771875 3.12890625 6.121875 3.12890625 4.421875 C-0.87363831 4.33006366 -0.87363831 4.33006366 -4.87109375 4.421875 C-6.40060401 5.95138526 -6.22502885 7.35547914 -6.37109375 9.484375 C-6.33004077 14.66526118 -4.28556143 16.9189119 -0.7578125 20.50390625 C4.27644839 25.62155034 7.24519811 30.53314633 7.50390625 37.796875 C7.44677547 41.7181242 7.27795743 43.17666177 5.19140625 46.609375 C1.0975129 49.03229147 -2.22471454 49.50545224 -6.87109375 48.421875 C-9.84643704 45.8819478 -10.77474118 44.50584138 -11.12109375 40.609375 C-10.99734375 39.5265625 -10.99734375 39.5265625 -10.87109375 38.421875 C-8.89109375 37.926875 -8.89109375 37.926875 -6.87109375 37.421875 C-6.21109375 39.731875 -5.55109375 42.041875 -4.87109375 44.421875 C-1.95475246 44.6720907 -1.95475246 44.6720907 1.12890625 44.421875 C3.98353972 40.13992479 4.10301768 36.44229543 3.12890625 31.421875 C1.20581601 28.33810307 -1.29061596 25.96249985 -3.87109375 23.421875 C-11.29127835 15.42870318 -11.29127835 15.42870318 -11.55859375 9.671875 C-11.28158803 6.74279598 -10.71235745 5.08369766 -9.43359375 2.359375 C-6.16701235 -0.11047923 -4.01896054 -0.2383568 0 0 Z " fill="#3A3A3C" transform="translate(674.87109375,446.578125)"/>
<path d="M0 0 C0.33 0 0.66 0 1 0 C1 12.87 1 25.74 1 39 C3.97 39.66 6.94 40.32 10 41 C12.7016127 43.8653468 12.95813535 45.65910211 13.4375 49.5625 C13 53 13 53 11.4375 55.4375 C8.03280512 57.61999672 5.96569988 57.63734462 2 57 C-0.4375 55.125 -0.4375 55.125 -2 52 C-2.31753879 48.59036212 -2.18342779 45.43927106 -2 42 C-7.94 42 -13.88 42 -20 42 C-20 41.67 -20 41.34 -20 41 C-13.33333333 41 -6.66666667 41 0 41 C0 27.47 0 13.94 0 0 Z " fill="#2E2E2E" transform="translate(685,247)"/>
<path d="M0 0 C5 0 5 0 7.77734375 2.5 C10.4731938 6.10151195 10.71513408 9.61073876 10.5625 14 C10.57345703 14.68578125 10.58441406 15.3715625 10.59570312 16.078125 C10.52335469 21.13286915 9.40472547 24.27128563 6 28 C4.02 28.33 2.04 28.66 0 29 C0 19.43 0 9.86 0 0 Z " fill="#EFF0F0" transform="translate(748,450)"/>
<path d="M0 0 C5.61 0 11.22 0 17 0 C17 1.32 17 2.64 17 4 C14.69 4 12.38 4 10 4 C10 17.86 10 31.72 10 46 C11.98 46 13.96 46 16 46 C16 46.99 16 47.98 16 49 C11.05 49 6.1 49 1 49 C1 48.01 1 47.02 1 46 C2.98 46 4.96 46 7 46 C7 32.14 7 18.28 7 4 C4.69 4 2.38 4 0 4 C0 2.68 0 1.36 0 0 Z " fill="#4C4D4E" transform="translate(597,446)"/>
<path d="M0 0 C0.33 0 0.66 0 1 0 C2.46858812 4.69545028 3.31896543 8.92771751 3.6328125 13.8671875 C3.71700439 15.15786133 3.80119629 16.44853516 3.88793945 17.77832031 C3.96782059 19.14383012 4.04682631 20.50939138 4.125 21.875 C4.16636078 22.56509155 4.20772156 23.25518311 4.25033569 23.96618652 C6.01528474 53.51286819 6.01528474 53.51286819 3.78125 56.78515625 C-1.46032831 60.36000461 -7.62837697 62.67069716 -14 62 C-14 61.01 -14 60.02 -14 59 C-13.33613281 58.81824219 -12.67226563 58.63648438 -11.98828125 58.44921875 C-11.10527344 58.19785156 -10.22226562 57.94648438 -9.3125 57.6875 C-8.44238281 57.44386719 -7.57226562 57.20023437 -6.67578125 56.94921875 C-3.71841296 55.90010854 -1.45365327 54.9769185 1 53 C1.6464329 50.21752032 1.6464329 50.21752032 1.375 47.0625 C1.32472656 45.50208984 1.32472656 45.50208984 1.2734375 43.91015625 C1.12159304 41.73878047 0.95895681 39.56780828 0.75317383 37.40087891 C-0.00020337 29.33293081 -0.11745686 21.34979635 -0.0625 13.25 C-0.05573242 11.32800781 -0.05573242 11.32800781 -0.04882812 9.3671875 C-0.0371772 6.24474069 -0.02082025 3.12239682 0 0 Z " fill="#3B3B3C" transform="translate(732,338)"/>
<path d="M0 0 C1.32 0.33 2.64 0.66 4 1 C3.01 1 2.02 1 1 1 C1.01110306 2.31687302 1.02220612 3.63374603 1.03364563 4.99052429 C1.13495902 17.39460108 1.20993564 29.79859403 1.25906086 42.20299053 C1.28516568 48.5804079 1.32058109 54.95749152 1.37719727 61.3347168 C1.43148365 67.48795163 1.46141387 73.64086525 1.47438622 79.79432106 C1.48363202 82.14312612 1.50168678 84.4919134 1.52865028 86.84058189 C1.56489427 90.12807723 1.56994709 93.41424164 1.56762695 96.7019043 C1.58560333 97.6751062 1.60357971 98.64830811 1.62210083 99.65100098 C1.58692403 104.25081258 1.49794947 106.33389622 -1.32722473 110.1131134 C-4.72386846 112.51102601 -6.69797534 112.52030428 -10.8125 112.3125 C-11.97394531 112.26738281 -13.13539063 112.22226562 -14.33203125 112.17578125 C-15.21246094 112.11777344 -16.09289062 112.05976563 -17 112 C-17 111.67 -17 111.34 -17 111 C-14.525 110.505 -14.525 110.505 -12 110 C-13.98 109.67 -15.96 109.34 -18 109 C-18 108.67 -18 108.34 -18 108 C-17.00097656 107.93941406 -16.00195312 107.87882812 -14.97265625 107.81640625 C-13.68230469 107.73261719 -12.39195312 107.64882813 -11.0625 107.5625 C-9.77472656 107.48128906 -8.48695313 107.40007812 -7.16015625 107.31640625 C-4.13976043 107.35080812 -4.13976043 107.35080812 -3 106 C-2.8396444 102.97192956 -2.74039552 99.96414546 -2.68359375 96.93359375 C-2.66281265 96.02497086 -2.64203156 95.11634796 -2.62062073 94.18019104 C-2.55502328 91.26604054 -2.4961932 88.35179696 -2.4375 85.4375 C-2.39432446 83.46678709 -2.35071049 81.49608374 -2.30664062 79.52539062 C-2.19933157 74.68369012 -2.09809325 69.84189563 -2 65 C-1.67 65 -1.34 65 -1 65 C-0.67 43.55 -0.34 22.1 0 0 Z " fill="#666566" transform="translate(711,290)"/>
<path d="M0 0 C4.86506545 -0.04638918 8.40279823 0.52889543 13 2 C13 2.66 13 3.32 13 4 C9.03611362 4.07622858 5.8726592 3.9681648 2 3 C2 37.98 2 72.96 2 109 C1.67 109 1.34 109 1 109 C0.11589535 83.14464168 -0.09116233 57.30525456 -0.0625 31.4375 C-0.06121597 30.27044777 -0.06121597 30.27044777 -0.05990601 29.07981873 C-0.04845438 19.38652206 -0.02829017 9.69326259 0 0 Z " fill="#161616" transform="translate(709,287)"/>
<path d="M0 0 C0.99 0 1.98 0 3 0 C3 10.89 3 21.78 3 33 C4.65 33 6.3 33 8 33 C8 33.99 8 34.98 8 36 C6.35 36 4.7 36 3 36 C3 39.96 3 43.92 3 48 C2.01 48 1.02 48 0 48 C0 44.04 0 40.08 0 36 C-3.96 36 -7.92 36 -12 36 C-12 35.01 -12 34.02 -12 33 C-8.04 33 -4.08 33 0 33 C0 22.11 0 11.22 0 0 Z " fill="#2B2B2B" transform="translate(705,447)"/>
<path d="M0 0 C0.99 0 1.98 0 3 0 C3.33 14.52 3.66 29.04 4 44 C7.96 44.33 11.92 44.66 16 45 C16 45.99 16 46.98 16 48 C10.72 48 5.44 48 0 48 C0 32.16 0 16.32 0 0 Z " fill="#393839" transform="translate(578,447)"/>
<path d="M0 0 C2.31 0 4.62 0 7 0 C5.68 0.33 4.36 0.66 3 1 C3 14.53 3 28.06 3 42 C10.69176832 41.05024683 10.69176832 41.05024683 12.4375 37.75 C13.03296614 34.83883222 13.58929491 31.94338645 14 29 C14.33 30.32 14.66 31.64 15 33 C15.66 33 16.32 33 17 33 C16.55396127 38.05510556 14.35299176 40.40166738 11 44 C8.23547967 45.38226016 5.9538637 45.09525387 2.875 45.0625 C1.77929688 45.05347656 0.68359375 45.04445313 -0.4453125 45.03515625 C-1.28835938 45.02355469 -2.13140625 45.01195312 -3 45 C-3 44.01 -3 43.02 -3 42 C-2.01 42 -1.02 42 0 42 C0 28.14 0 14.28 0 0 Z " fill="#313132" transform="translate(621,450)"/>
<path d="M0 0 C2.3599859 2.3599859 2.2637622 2.85706845 2.3347168 6.06323242 C2.36936287 7.32045357 2.36936287 7.32045357 2.40470886 8.60307312 C2.41939713 9.51136368 2.43408539 10.41965424 2.44921875 11.35546875 C2.47095657 12.29046707 2.4926944 13.22546539 2.51509094 14.188797 C2.55906746 16.17174672 2.5982536 18.15480751 2.63305664 20.13793945 C2.68697494 23.15808965 2.75726852 26.17751824 2.83007812 29.19726562 C2.87077223 31.12497955 2.91051595 33.05271382 2.94921875 34.98046875 C2.96997971 35.87863815 2.99074066 36.77680756 3.01213074 37.70219421 C3.09033328 42.59760413 2.84478834 47.17515599 2 52 C1.67 52 1.34 52 1 52 C1 49.36 1 46.72 1 44 C-5.27 44 -11.54 44 -18 44 C-18 43.34 -18 42.68 -18 42 C-12.06 42 -6.12 42 0 42 C0 28.14 0 14.28 0 0 Z " fill="#161717" transform="translate(683,244)"/>
<path d="M0 0 C0.33 0 0.66 0 1 0 C0.98428955 1.20124512 0.9685791 2.40249023 0.95239258 3.64013672 C0.89819115 8.08668339 0.86368573 12.53320074 0.83520508 16.97998047 C0.82009605 18.90646267 0.79960786 20.83291035 0.77368164 22.75927734 C0.73739075 25.52450057 0.72029521 28.28927004 0.70703125 31.0546875 C0.69154739 31.9193161 0.67606354 32.7839447 0.66011047 33.67477417 C0.62404982 36.35052023 0.62404982 36.35052023 1 40 C4.40431947 42.26954631 6.16524202 42.36549949 10.1875 42.625 C11.27417969 42.69976562 12.36085938 42.77453125 13.48046875 42.8515625 C14.31191406 42.90054688 15.14335938 42.94953125 16 43 C16 43.66 16 44.32 16 45 C17.32 45.33 18.64 45.66 20 46 C17.2697611 46.1083667 14.54385457 46.18746694 11.8125 46.25 C11.04357422 46.28351563 10.27464844 46.31703125 9.48242188 46.3515625 C5.45746992 46.42066039 3.50191276 46.31755003 0.01171875 44.109375 C-2 42 -2 42 -3 40 C-2.93678326 38.26236901 -2.80027789 36.52718988 -2.62890625 34.796875 C-2.1917361 30.10097993 -1.79794695 25.40766295 -1.46484375 20.703125 C-1.37783203 19.47851562 -1.29082031 18.25390625 -1.20117188 16.9921875 C-1.11416016 15.75726563 -1.02714844 14.52234375 -0.9375 13.25 C-0.84662109 11.96867187 -0.75574219 10.68734375 -0.66210938 9.3671875 C-0.44074875 6.2448376 -0.22005721 3.12244199 0 0 Z " fill="#313334" transform="translate(620,350)"/>
<path d="M0 0 C0.33 0 0.66 0 1 0 C1.1140595 13.30109237 1.03245537 26.58070264 0.5625 39.875 C0.52326416 41.01936523 0.48402832 42.16373047 0.44360352 43.34277344 C0.18011427 50.25519386 -0.29594983 57.11844948 -1 64 C-1.33 64 -1.66 64 -2 64 C-2 56.08 -2 48.16 -2 40 C-2.66 45.94 -3.32 51.88 -4 58 C-4.33 58 -4.66 58 -5 58 C-4.71936253 52.50667077 -4.42934944 47.01395083 -4.13232422 41.52148438 C-4.0179856 39.34272188 -3.91471826 37.16390217 -3.81640625 34.984375 C-3.21426054 23.23638925 -1.6268885 11.64380784 0 0 Z " fill="#5C5B5C" transform="translate(622,326)"/>
<path d="M0 0 C3.375 0.625 3.375 0.625 7 2 C10.10384125 7.12808555 9.63078042 14.18618049 9 20 C8.00529277 23.16052299 6.85605003 25.18940995 5 28 C4.01 28.33 3.02 28.66 2 29 C2.875 24.25 2.875 24.25 4 22 C4.17778623 19.40024068 4.27753022 16.85175193 4.3125 14.25 C4.34150391 13.54617188 4.37050781 12.84234375 4.40039062 12.1171875 C4.46440667 6.8186289 3.30198773 4.14213845 0 0 Z " fill="#343333" transform="translate(753,450)"/>
<path d="M0 0 C0.33 0 0.66 0 1 0 C3.20606425 11.33276552 2.95016975 23.11352028 -1 34 C-1.33 33.34 -1.66 32.68 -2 32 C-3.485 32.495 -3.485 32.495 -5 33 C-4.690625 31.88625 -4.38125 30.7725 -4.0625 29.625 C-2.30952896 21.90446795 -2.32311544 13.88231611 -2 6 C-1.67 6 -1.34 6 -1 6 C-0.67 4.02 -0.34 2.04 0 0 Z " fill="#474646" transform="translate(736,456)"/>
<path d="M0 0 C0.33 0 0.66 0 1 0 C1.41277905 36.87704558 1.41277905 36.87704558 -1 52 C-1.33 52 -1.66 52 -2 52 C-2.18989142 19.16923399 -2.18989142 19.16923399 -1.5625 8 C-1.52326416 7.27893066 -1.48402832 6.55786133 -1.44360352 5.81494141 C-1.13687395 1.13687395 -1.13687395 1.13687395 0 0 Z " fill="#1A1A1A" transform="translate(622,292)"/>
<path d="M0 0 C5.28 0 10.56 0 16 0 C16 0.66 16 1.32 16 2 C13.69 2 11.38 2 9 2 C9 15.2 9 28.4 9 42 C8.67 42 8.34 42 8 42 C6.83347349 29.00156173 6.89468532 16.04119828 7 3 C4.69 3 2.38 3 0 3 C0 2.01 0 1.02 0 0 Z " fill="#131414" transform="translate(597,447)"/>
<path d="M0 0 C2.12890625 0.421875 2.12890625 0.421875 4.69140625 2.109375 C6.36192083 4.79672455 6.47428829 6.31343665 6.12890625 9.421875 C5.13890625 9.421875 4.14890625 9.421875 3.12890625 9.421875 C3.12890625 7.771875 3.12890625 6.121875 3.12890625 4.421875 C-0.87363831 4.33006366 -0.87363831 4.33006366 -4.87109375 4.421875 C-6.24526005 5.58780962 -6.24526005 5.58780962 -6.24609375 8.796875 C-6.85421014 12.32395004 -7.08893782 13.36549888 -9.87109375 15.421875 C-11.43094584 13.86202291 -11.11561719 12.33281402 -11.18359375 10.171875 C-11.12148131 6.92649989 -10.84643969 5.36935113 -9.43359375 2.359375 C-6.16701235 -0.11047923 -4.01896054 -0.2383568 0 0 Z " fill="#343435" transform="translate(674.87109375,446.578125)"/>
<path d="M0 0 C0.33 0 0.66 0 1 0 C2.36898396 10.43850267 2.36898396 10.43850267 0.5625 13.1875 C-2.7059714 15.49934562 -4.93366749 15.63475257 -8.87109375 15.453125 C-11 15 -11 15 -13.5625 12.8125 C-15.06525938 9.87231859 -15.3708842 8.24523674 -15 5 C-13.68 4.67 -12.36 4.34 -11 4 C-10.34 6.31 -9.68 8.62 -9 11 C-6.08365871 11.2502157 -6.08365871 11.2502157 -3 11 C-1.06604999 8.09907498 -0.69868059 7.10325263 -0.375 3.8125 C-0.25125 2.554375 -0.1275 1.29625 0 0 Z " fill="#353535" transform="translate(679,480)"/>
<path d="M0 0 C6.13053511 -0.32712342 10.62669111 -0.39366878 16 3 C14 4 14 4 6 3 C6 12.57 6 22.14 6 32 C5.67 32 5.34 32 5 32 C4.15156826 25.43300475 3.87438854 19.05449407 3.9375 12.4375 C3.94201172 11.52419922 3.94652344 10.61089844 3.95117188 9.66992188 C3.9628126 7.44654262 3.97916149 5.22330879 4 3 C2.68 3 1.36 3 0 3 C0 2.01 0 1.02 0 0 Z " fill="#191918" transform="translate(741,447)"/>
<path d="M0 0 C3.7595188 0.52215539 6.36771463 1.17273053 9 4 C9.375 7.0625 9.375 7.0625 9 10 C7 12 7 12 4.5 12.25 C2 12 2 12 0 10 C-0.1953125 7.6171875 -0.1953125 7.6171875 -0.125 4.875 C-0.10695313 3.96492188 -0.08890625 3.05484375 -0.0703125 2.1171875 C-0.04710937 1.41851562 -0.02390625 0.71984375 0 0 Z " fill="#E1E0DF" transform="translate(686,289)"/>
<path d="M0 0 C3.46827222 0.28902269 4.80653554 0.81671788 7.375 3.25 C9 6 9 6 8.8125 8.75 C8 11 8 11 7 12 C4.5625 12.1875 4.5625 12.1875 2 12 C0 10 0 10 -0.1953125 7.6171875 C-0.17210937 6.71226562 -0.14890625 5.80734375 -0.125 4.875 C-0.10695313 3.96492188 -0.08890625 3.05484375 -0.0703125 2.1171875 C-0.04710937 1.41851562 -0.02390625 0.71984375 0 0 Z " fill="#E9E8E7" transform="translate(647,290)"/>
<path d="M0 0 C11.51472518 -0.25940557 22.59408052 0.40117274 34 2 C33.67 2.66 33.34 3.32 33 4 C8.07516506 4.57592687 8.07516506 4.57592687 0 0 Z " fill="#242424" transform="translate(666,397)"/>
<path d="M0 0 C0.33 0 0.66 0 1 0 C2.59641649 4.92458583 3.24020659 9.01593201 3.1953125 14.24609375 C3.1924826 14.90207047 3.18965271 15.55804718 3.18673706 16.23390198 C3.17565984 18.30196409 3.15058063 20.36957173 3.125 22.4375 C3.11495402 23.85090515 3.10583102 25.26431717 3.09765625 26.67773438 C3.07576184 30.11863394 3.04132051 33.55927252 3 37 C2.67 37 2.34 37 2 37 C-0.18751681 29.08532302 -0.23376006 21.61541991 -0.125 13.4375 C-0.11597656 12.14263672 -0.10695313 10.84777344 -0.09765625 9.51367188 C-0.07425094 6.34225229 -0.04146228 3.17122627 0 0 Z " fill="#2F2F2E" transform="translate(732,338)"/>
<path d="M0 0 C0.33 0 0.66 0 1 0 C1.02505615 1.06959961 1.0501123 2.13919922 1.07592773 3.24121094 C1.17019528 7.21463727 1.27036858 11.18789668 1.37231445 15.16113281 C1.41559016 16.87984305 1.45727041 18.59859424 1.49731445 20.31738281 C1.55519565 22.789839 1.61883836 25.26209047 1.68359375 27.734375 C1.70030624 28.50118591 1.71701874 29.26799683 1.73423767 30.05804443 C1.83171219 33.57893935 2.14008412 36.56033649 3 40 C6.96 40.33 10.92 40.66 15 41 C15 41.66 15 42.32 15 43 C10.05 43 5.1 43 0 43 C0 28.81 0 14.62 0 0 Z " fill="#090A09" transform="translate(579,451)"/>
<path d="M0 0 C1.58294782 -0.05437607 3.16644256 -0.09296271 4.75 -0.125 C5.63171875 -0.14820313 6.5134375 -0.17140625 7.421875 -0.1953125 C10.1135858 0.00860498 11.69904974 0.63448279 14 2 C14 2.66 14 3.32 14 4 C11.36 3.67 8.72 3.34 6 3 C6 14.55 6 26.1 6 38 C5.67 38 5.34 38 5 38 C5 26.45 5 14.9 5 3 C3.35 3 1.7 3 0 3 C0 2.01 0 1.02 0 0 Z " fill="#151515" transform="translate(617,447)"/>
<path d="M0 0 C0.99 0 1.98 0 3 0 C3 10.89 3 21.78 3 33 C0.13454405 30.13454405 0.68370372 28.03185244 0.5859375 24.0234375 C0.56657135 23.33819 0.5472052 22.6529425 0.5272522 21.94692993 C0.46743169 19.75641356 0.42106244 17.5658447 0.375 15.375 C0.33682237 13.89060198 0.29777076 12.40622616 0.2578125 10.921875 C0.16172916 7.28145315 0.07770718 3.64086564 0 0 Z " fill="#101110" transform="translate(705,447)"/>
<path d="M0 0 C0.33 0 0.66 0 1 0 C1.0589002 4.41660901 1.09389517 8.83311469 1.125 13.25 C1.14175781 14.48492187 1.15851562 15.71984375 1.17578125 16.9921875 C1.21726758 24.87458931 0.58804858 32.27639057 -1 40 C-1.66 40 -2.32 40 -3 40 C-2.94013916 39.30487305 -2.88027832 38.60974609 -2.81860352 37.89355469 C-2.1218537 29.68364307 -1.51660232 21.46896335 -0.9375 13.25 C-0.84662109 11.96867187 -0.75574219 10.68734375 -0.66210938 9.3671875 C-0.44074875 6.2448376 -0.22005721 3.12244199 0 0 Z " fill="#141615" transform="translate(620,350)"/>
<path d="M0 0 C0.33 0 0.66 0 1 0 C1 12.87 1 25.74 1 39 C3.97 39.66 6.94 40.32 10 41 C10.33 41.66 10.66 42.32 11 43 C10.01 43 9.02 43 8 43 C7.67 43.66 7.34 44.32 7 45 C6.34 44.34 5.68 43.68 5 43 C3.35 42.34 1.7 41.68 0 41 C0 27.47 0 13.94 0 0 Z " fill="#5A5A5C" transform="translate(685,247)"/>
<path d="M0 0 C3.87646817 -0.45075211 5.50563328 -0.36790082 8.6875 2 C11.73167056 5.94919424 11.59248513 8.49244828 11.3125 13.3125 C11.27866211 14.42334961 11.27866211 14.42334961 11.24414062 15.55664062 C11.1855815 17.37197357 11.09590886 19.18625681 11 21 C10.67 21 10.34 21 10 21 C9.73445312 19.86820312 9.46890625 18.73640625 9.1953125 17.5703125 C8.8389156 16.08845168 8.48212424 14.6066857 8.125 13.125 C7.95097656 12.37863281 7.77695312 11.63226563 7.59765625 10.86328125 C6.61076121 6.51116329 6.61076121 6.51116329 4 3 C1.93125966 2.3574765 1.93125966 2.3574765 0 2 C0 1.34 0 0.68 0 0 Z " fill="#2B2B2D" transform="translate(725,447)"/>
<path d="M0 0 C0.33 0 0.66 0 1 0 C1.06058594 0.71027344 1.12117187 1.42054688 1.18359375 2.15234375 C1.26738281 3.07144531 1.35117187 3.99054688 1.4375 4.9375 C1.51871094 5.85402344 1.59992187 6.77054687 1.68359375 7.71484375 C1.76044976 9.96159732 1.76044976 9.96159732 3 11 C6.72224599 11.29386153 7.77786243 11.14809171 11 9 C12.19232613 6.94996045 12.19232613 6.94996045 13 5 C13.31424507 8.45669582 13.37956836 10.39901677 11.5 13.375 C7.86748926 15.73613198 5.28156703 15.2854378 1 15 C-1.80396138 10.05183286 -0.77350507 5.38317715 0 0 Z " fill="#3F4040" transform="translate(646,290)"/>
<path d="M0 0 C5.39277414 0 8.11126518 0.43560486 13 2 C13 2.66 13 3.32 13 4 C9.03611362 4.07622858 5.8726592 3.9681648 2 3 C2 11.25 2 19.5 2 28 C1.67 28 1.34 28 1 28 C0.67 18.76 0.34 9.52 0 0 Z " fill="#212120" transform="translate(709,287)"/>
<path d="M0 0 C0.721875 0.845625 1.44375 1.69125 2.1875 2.5625 C4.70272783 5.29491775 4.70272783 5.29491775 7.5625 4.9375 C9.79864801 4.07744307 11.90593774 3.16336792 14 2 C13.6875 4.375 13.6875 4.375 13 7 C9.28500878 9.47666082 7.39092112 9.54886514 3 9 C0.22810842 5.78102913 0 4.3064427 0 0 Z " fill="#252625" transform="translate(720,486)"/>
<path d="M0 0 C0.66 0.33 1.32 0.66 2 1 C4.204364 1.22950319 6.41392173 1.41075933 8.625 1.5625 C9.81351563 1.64628906 11.00203125 1.73007812 12.2265625 1.81640625 C13.59941406 1.90728516 13.59941406 1.90728516 15 2 C15 2.33 15 2.66 15 3 C14.09636719 3.02578125 13.19273437 3.0515625 12.26171875 3.078125 C11.08222656 3.13484375 9.90273438 3.1915625 8.6875 3.25 C6.92986328 3.31960938 6.92986328 3.31960938 5.13671875 3.390625 C1.90567838 3.69323682 1.90567838 3.69323682 0.14453125 6.046875 C-0.42201172 7.01367188 -0.42201172 7.01367188 -1 8 C-1.33 8 -1.66 8 -2 8 C-2.33 13.94 -2.66 19.88 -3 26 C-3.33 26 -3.66 26 -4 26 C-4.11698258 22.79197767 -4.18750607 19.58450975 -4.25 16.375 C-4.28351562 15.47136719 -4.31703125 14.56773437 -4.3515625 13.63671875 C-4.43772879 7.73432783 -3.83743744 4.54751445 0 0 Z " fill="#3F3F41" transform="translate(624,285)"/>
<path d="M0 0 C-1.32 0.33 -2.64 0.66 -4 1 C-4 1.66 -4 2.32 -4 3 C-2.68 3.33 -1.36 3.66 0 4 C-0.763125 4.020625 -1.52625 4.04125 -2.3125 4.0625 C-3.199375 4.371875 -4.08625 4.68125 -5 5 C-6.73068271 8.454817 -6.73068271 8.454817 -8 12 C-8.99 12.495 -8.99 12.495 -10 13 C-10.65772428 16.02934491 -10.65772428 16.02934491 -11 19 C-11.33 19 -11.66 19 -12 19 C-12.47135605 12.51885436 -11.46421626 7.58445565 -8 2 C-4.77208445 -0.1519437 -3.71599191 -0.20086443 0 0 Z " fill="#4C4D4D" transform="translate(729,446)"/>
<path d="M0 0 C5.94 0.33 11.88 0.66 18 1 C17.01 2.485 17.01 2.485 16 4 C13.8203125 4.328125 13.8203125 4.328125 11.125 4.25 C10.15175781 4.22421875 9.17851563 4.1984375 8.17578125 4.171875 C3.10569957 3.89747944 -1.94680181 3.49385532 -7 3 C-7 2.67 -7 2.34 -7 2 C-3.535 1.505 -3.535 1.505 0 1 C0 0.67 0 0.34 0 0 Z " fill="#4B4B4C" transform="translate(636,394)"/>
<path d="M0 0 C0.33 0 0.66 0 1 0 C1.33 8.25 1.66 16.5 2 25 C1.67 25 1.34 25 1 25 C0.67 26.65 0.34 28.3 0 30 C-0.33 30 -0.66 30 -1 30 C-1.74507544 23.62694402 -2.10349817 17.41688675 -2 11 C-1.67 11 -1.34 11 -1 11 C-0.67 7.37 -0.34 3.74 0 0 Z " fill="#525151" transform="translate(732,318)"/>
<path d="M0 0 C4.3850887 0.50597177 7.02456932 2.88932247 10 6 C10.375 9.8125 10.375 9.8125 10 13 C8 12 8 12 6.75 9.125 C4.66668742 5.40479896 2.88942339 4.55576936 -1 3 C-0.67 2.01 -0.34 1.02 0 0 Z " fill="#2D2F30" transform="translate(648,287)"/>
<path d="M0 0 C3.12498063 -0.02895976 6.2499269 -0.04678483 9.375 -0.0625 C10.70917969 -0.07506836 10.70917969 -0.07506836 12.0703125 -0.08789062 C13.34648438 -0.09272461 13.34648438 -0.09272461 14.6484375 -0.09765625 C15.43395996 -0.10289307 16.21948242 -0.10812988 17.02880859 -0.11352539 C19 0 19 0 21 1 C21 4.3 21 7.6 21 11 C20.01 11 19.02 11 18 11 C18 7.7 18 4.4 18 1 C12.06 1 6.12 1 0 1 C0 0.67 0 0.34 0 0 Z " fill="#505050" transform="translate(665,288)"/>
<path d="M0 0 C4.62 0 9.24 0 14 0 C14 1.32 14 2.64 14 4 C9.71 4 5.42 4 1 4 C1 3.67 1 3.34 1 3 C2.65 2.67 4.3 2.34 6 2 C3.03 1.505 3.03 1.505 0 1 C0 0.67 0 0.34 0 0 Z " fill="#575657" transform="translate(693,398)"/>
<path d="M0 0 C3.67230705 3.07999946 4.56802365 5.2482602 5 10 C4.67 10 4.34 10 4 10 C3.67 15.28 3.34 20.56 3 26 C2.67 26 2.34 26 2 26 C1.93941406 24.70964844 1.87882813 23.41929687 1.81640625 22.08984375 C1.73194119 20.37238745 1.64729623 18.65493998 1.5625 16.9375 C1.52318359 16.08994141 1.48386719 15.24238281 1.44335938 14.36914062 C1.19996611 9.51999791 0.77401958 4.79371788 0 0 Z " fill="#545355" transform="translate(680,236)"/>
<path d="M0 0 C0.66 0.33 1.32 0.66 2 1 C1.67 1.33 1.34 1.66 1 2 C0.75650989 4.51606449 0.61636634 7.03086024 0.4765625 9.5546875 C-0.06506728 12.33386981 -0.83216942 13.24950579 -3 15 C-4.55985209 13.44014791 -4.24452344 11.91093902 -4.3125 9.75 C-4.29507792 6.10878521 -4.07856233 5.12029857 -2 1.9375 C-1.34 1.298125 -0.68 0.65875 0 0 Z " fill="#494644" transform="translate(668,447)"/>
<path d="M0 0 C1.875 0.1875 1.875 0.1875 4 1 C6.69561188 5.31297901 6.19227075 10.09709597 6 15 C5.01 15.495 5.01 15.495 4 16 C3.96261719 15.40832031 3.92523437 14.81664062 3.88671875 14.20703125 C3.48131892 9.33428431 2.85719103 6.09944801 0 2 C0 1.34 0 0.68 0 0 Z " fill="#111314" transform="translate(676,473)"/>
<path d="M0 0 C2.31 0.66 4.62 1.32 7 2 C7.33 3.98 7.66 5.96 8 8 C7.67 8 7.34 8 7 8 C6.67 11.3 6.34 14.6 6 18 C5.67 18 5.34 18 5 18 C4.97421875 17.20335937 4.9484375 16.40671875 4.921875 15.5859375 C4.57910663 9.18240118 4.23755897 4.92103622 0 0 Z " fill="#4B4848" transform="translate(753,450)"/>
<path d="M0 0 C1.32 0 2.64 0 4 0 C3.34 4.29 2.68 8.58 2 13 C1.34 13 0.68 13 0 13 C0 8.71 0 4.42 0 0 Z " fill="#222323" transform="translate(644,287)"/>
<path d="M0 0 C0.33 0 0.66 0 1 0 C1.19335938 0.59167969 1.38671875 1.18335938 1.5859375 1.79296875 C2.94414719 5.9146645 4.32050585 9.9950524 6 14 C3.53199953 12.84826645 1.95216435 11.95216435 0 10 C-0.1953125 7.6171875 -0.1953125 7.6171875 -0.125 4.875 C-0.10695313 3.96492188 -0.08890625 3.05484375 -0.0703125 2.1171875 C-0.04710937 1.41851562 -0.02390625 0.71984375 0 0 Z " fill="#171716" transform="translate(666,454)"/>
<path d="M0 0 C0.99 0 1.98 0 3 0 C3 2.64 3 5.28 3 8 C2.01 8 1.02 8 0 8 C-0.38063221 5.6739143 -0.71269945 3.33944736 -1 1 C-0.67 0.67 -0.34 0.34 0 0 Z " fill="#373635" transform="translate(665,484)"/>
<path d="M0 0 C4.875 1.75 4.875 1.75 6 4 C6.04022391 6.3329866 6.04320247 8.66706666 6 11 C5.34 11 4.68 11 4 11 C3.52014033 9.72942818 3.0411407 8.45853152 2.5625 7.1875 C2.16224609 6.12595703 2.16224609 6.12595703 1.75390625 5.04296875 C1.13774814 3.37327604 0.56280765 1.68842296 0 0 Z " fill="#1F2122" transform="translate(692,289)"/>
<path d="M0 0 C0.33 0.66 0.66 1.32 1 2 C1.66 2.33 2.32 2.66 3 3 C-0.18762365 5.12508244 -2.26512223 5.5020163 -6 6 C-6 4.68 -6 3.36 -6 2 C-4.02 1.34 -2.04 0.68 0 0 Z " fill="#363537" transform="translate(754,477)"/>
<path d="M0 0 C0.66 0 1.32 0 2 0 C3.09506492 3.28519475 3.09960608 5.73663415 3.0625 9.1875 C3.05347656 10.27417969 3.04445313 11.36085938 3.03515625 12.48046875 C3.02355469 13.31191406 3.01195312 14.14335937 3 15 C2.67 15 2.34 15 2 15 C0.73694665 9.92523206 -0.27036084 5.27203646 0 0 Z " fill="#121414" transform="translate(733,453)"/>
<path d="M0 0 C1.52194825 2.41721193 2.01261321 3.73512258 1.875 6.625 C1 9 1 9 -1.0625 10.3125 C-2.0215625 10.6528125 -2.0215625 10.6528125 -3 11 C-2.32829194 7.1936543 -1.27253436 3.64793184 0 0 Z " fill="#262526" transform="translate(758,468)"/>
<path d="M0 0 C2.0625 0.4375 2.0625 0.4375 4 1 C3.01 1.66 2.02 2.32 1 3 C-0.19232613 5.05003955 -0.19232613 5.05003955 -1 7 C-2.98 7 -4.96 7 -7 7 C-7 6.67 -7 6.34 -7 6 C-5.35 6 -3.7 6 -2 6 C-2 5.34 -2 4.68 -2 4 C-3.65 4 -5.3 4 -7 4 C-7 3.67 -7 3.34 -7 3 C-5.5459375 2.5359375 -5.5459375 2.5359375 -4.0625 2.0625 C-1.15934208 1.30476658 -1.15934208 1.30476658 0 0 Z " fill="#666566" transform="translate(724,285)"/>
<path d="M0 0 C1.64846769 0.44876616 3.29373455 0.90930488 4.9375 1.375 C5.85402344 1.63023437 6.77054688 1.88546875 7.71484375 2.1484375 C10 3 10 3 11 5 C10.01 5 9.02 5 8 5 C7.67 5.66 7.34 6.32 7 7 C6.34 6.34 5.68 5.68 5 5 C3.35008418 4.29289322 1.68437744 3.62056011 0 3 C0 2.01 0 1.02 0 0 Z " fill="#434244" transform="translate(685,285)"/>
<path d="M0 0 C0.66 0 1.32 0 2 0 C1.625 2.9375 1.625 2.9375 1 6 C0.01 6.495 0.01 6.495 -1 7 C-1.65772428 10.02934491 -1.65772428 10.02934491 -2 13 C-2.33 13 -2.66 13 -3 13 C-3.44539877 4.2404908 -3.44539877 4.2404908 0 0 Z " fill="#363432" transform="translate(720,452)"/>
<path d="M0 0 C1.32 0 2.64 0 4 0 C4.6875 2.75 4.6875 2.75 5 6 C3.5625 8.375 3.5625 8.375 2 10 C2 7.69 2 5.38 2 3 C1.01 2.67 0.02 2.34 -1 2 C-0.67 1.34 -0.34 0.68 0 0 Z " fill="#3A3838" transform="translate(725,286)"/>
<path d="M0 0 C0.33 0 0.66 0 1 0 C2 7.625 2 7.625 2 11 C1.34 11.66 0.68 12.32 0 13 C-0.99 12.34 -1.98 11.68 -3 11 C-2.34 10.01 -1.68 9.02 -1 8 C-0.54860541 5.9507906 -0.54860541 5.9507906 -0.375 3.8125 C-0.25125 2.554375 -0.1275 1.29625 0 0 Z " fill="#474647" transform="translate(679,480)"/>
<path d="M0 0 C0.94875 0.04125 1.8975 0.0825 2.875 0.125 C2.25625 0.41375 1.6375 0.7025 1 1 C-1.25825765 2.06220042 -1.25825765 2.06220042 -3.125 4.125 C-3.52547444 6.44775177 -3.8647104 8.78239357 -4.125 11.125 C-4.455 11.125 -4.785 11.125 -5.125 11.125 C-5.17899736 9.66707116 -5.21779177 8.20857288 -5.25 6.75 C-5.28480469 5.53183594 -5.28480469 5.53183594 -5.3203125 4.2890625 C-4.98150185 0.53504049 -3.58663539 0.14346542 0 0 Z " fill="#D2D3D3" transform="translate(673.125,449.875)"/>
<path d="M0 0 C0.33 0 0.66 0 1 0 C1.04898438 0.92683594 1.09796875 1.85367187 1.1484375 2.80859375 C1.22320313 4.00613281 1.29796875 5.20367187 1.375 6.4375 C1.44460938 7.63246094 1.51421875 8.82742188 1.5859375 10.05859375 C1.72257813 11.02925781 1.85921875 11.99992187 2 13 C2.66 13.33 3.32 13.66 4 14 C2.0625 13.6875 2.0625 13.6875 0 13 C-1.06671952 9.79984144 -0.94845472 8.11455706 -0.5625 4.8125 C-0.46066406 3.91144531 -0.35882812 3.01039063 -0.25390625 2.08203125 C-0.17011719 1.39496094 -0.08632813 0.70789063 0 0 Z " fill="#383A39" transform="translate(646,290)"/>
<path d="M0 0 C1.134375 0.020625 2.26875 0.04125 3.4375 0.0625 C2.4375 2.0625 2.4375 2.0625 -0.5 3.125 C-1.510625 3.434375 -2.52125 3.74375 -3.5625 4.0625 C-4.5525 4.5575 -4.5525 4.5575 -5.5625 5.0625 C-4.43693182 0.07784091 -4.43693182 0.07784091 0 0 Z " fill="#181818" transform="translate(673.5625,446.9375)"/>
<path d="M0 0 C0.66 0 1.32 0 2 0 C1.67 1.65 1.34 3.3 1 5 C0.01 5 -0.98 5 -2 5 C-2 2 -2 2 0 0 Z " fill="#1E1E1E" transform="translate(732,488)"/>
<path d="M0 0 C0.33 1.32 0.66 2.64 1 4 C1.66 4 2.32 4 3 4 C2.67 5.65 2.34 7.3 2 9 C1.34 8.67 0.68 8.34 0 8 C0 5.36 0 2.72 0 0 Z " fill="#3B3B3B" transform="translate(635,479)"/>
<path d="M0 0 C2.31 0.66 4.62 1.32 7 2 C6.34 3.32 5.68 4.64 5 6 C3.31237149 4.3545622 1.6459651 2.68711423 0 1 C0 0.67 0 0.34 0 0 Z " fill="#3F3F40" transform="translate(753,450)"/>
<path d="M0 0 C1.65 0.33 3.3 0.66 5 1 C5 1.66 5 2.32 5 3 C5.66 3.33 6.32 3.66 7 4 C4.36 4 1.72 4 -1 4 C-0.67 2.68 -0.34 1.36 0 0 Z " fill="#4B4C4C" transform="translate(648,301)"/>
<path d="M0 0 C3.24208567 0.35049575 4.61527704 0.56221181 6.8125 3.0625 C7.204375 3.701875 7.59625 4.34125 8 5 C7.67 5.66 7.34 6.32 7 7 C6.01 6.34 5.02 5.68 4 5 C4 4.01 4 3.02 4 2 C2.68 1.34 1.36 0.68 0 0 Z " fill="#C8C9CA" transform="translate(673,236)"/>
</svg>
